<?xml version="1.0" standalone="no"?>
<!DOCTYPE svg PUBLIC "-//W3C//DTD SVG 20010904//EN"
 "http://www.w3.org/TR/2001/REC-SVG-20010904/DTD/svg10.dtd">
<svg version="1.0" xmlns="http://www.w3.org/2000/svg"
 width="939.000000pt" height="939.000000pt" viewBox="0 0 939.000000 939.000000"
 preserveAspectRatio="xMidYMid meet">
<metadata>
Created by potrace 1.11, written by Peter Selinger 2001-2013
</metadata>
<g transform="translate(0.000000,939.000000) scale(0.100000,-0.100000)"
fill="#000000" stroke="none">
<path d="M0 4695 l0 -4695 4695 0 4695 0 0 4695 0 4695 -4695 0 -4695 0 0
-4695z m3880 2996 c75 -16 135 -20 285 -21 105 0 206 -5 227 -10 25 -7 56 -32
99 -77 74 -79 184 -244 204 -305 9 -29 15 -112 18 -256 l4 -212 47 -95 c42
-85 54 -100 119 -151 83 -66 91 -74 158 -172 91 -132 105 -190 73 -304 -15
-52 -19 -58 -43 -58 -14 0 -138 -9 -276 -20 -137 -11 -251 -20 -252 -20 -2 0
-3 10 -3 23 0 39 -26 63 -87 80 -32 9 -222 50 -423 92 -201 41 -390 81 -420
88 -70 17 -143 6 -219 -33 -85 -42 -117 -74 -140 -136 -57 -151 2 -174 269
-105 191 50 265 56 416 37 71 -9 158 -22 194 -29 l65 -12 -50 -2 c-198 -10
-784 -90 -933 -127 -54 -14 -142 -42 -197 -63 l-100 -37 -455 -7 c-250 -4
-498 -12 -550 -18 -52 -6 -117 -14 -145 -17 l-50 -6 25 21 c43 35 192 108 265
131 85 26 217 35 345 22 76 -7 102 -6 133 6 20 8 37 19 37 26 0 15 -132 97
-200 124 -66 26 -133 41 -179 42 -66 0 -174 -40 -268 -101 -69 -45 -109 -63
-163 -75 -39 -9 -73 -14 -76 -11 -10 10 16 435 42 697 24 244 27 261 71 390
54 160 119 295 170 351 36 40 101 75 233 126 96 37 297 71 519 88 126 10 235
24 306 40 61 14 182 42 270 61 88 19 185 41 215 49 74 20 293 12 420 -14z
m2019 -1665 c85 -44 161 -198 161 -325 0 -83 -42 -277 -105 -487 -78 -255
-112 -346 -189 -504 -49 -101 -69 -129 -160 -228 -118 -127 -109 -103 -121
-327 -3 -60 -12 -201 -21 -313 -8 -112 -19 -323 -24 -470 -10 -267 -10 -267
21 -508 l30 -240 -26 -103 c-23 -93 -39 -127 -188 -389 -90 -158 -183 -316
-207 -352 -97 -145 -428 -609 -508 -714 -52 -68 -176 -153 -422 -291 -279
-156 -490 -255 -578 -270 -142 -25 -506 -66 -638 -72 -139 -6 -304 9 -362 32
-43 19 -52 47 -52 173 0 98 2 112 29 162 17 33 45 125 71 235 23 99 56 223 73
275 29 91 30 104 32 285 3 245 -12 737 -24 797 -15 71 -69 203 -106 257 -20
30 -35 68 -39 98 -10 67 -15 83 -29 83 -18 0 -117 69 -117 82 0 6 -18 30 -40
54 -22 24 -40 50 -40 57 0 7 -32 51 -70 98 -81 96 -180 239 -267 384 -163 270
-232 461 -268 740 -8 66 -31 199 -51 295 -33 161 -36 184 -31 295 3 66 8 129
12 140 6 19 16 20 153 22 165 2 505 27 597 43 33 6 95 20 138 32 70 18 81 25
103 58 35 52 71 191 90 340 19 157 35 192 89 202 73 13 189 9 211 -7 12 -8 45
-67 74 -132 74 -165 102 -212 173 -288 l62 -67 80 -8 c167 -17 515 20 869 91
202 41 211 54 211 306 l0 182 25 6 c14 2 150 32 302 65 152 33 286 60 297 60
27 0 62 -75 98 -210 20 -73 27 -130 32 -245 l6 -150 55 0 55 0 3 83 c3 77 12
102 26 67 11 -31 24 -13 36 50 11 56 15 64 34 63 21 -1 166 86 166 100 0 4
-12 25 -25 47 -31 50 -31 64 -1 92 18 17 25 38 30 89 8 82 47 145 98 161 49
16 135 15 167 -1z m-1498 -102 c53 -27 61 -65 66 -294 6 -243 -1 -275 -59
-303 -90 -44 -581 -118 -827 -125 -216 -5 -235 -1 -297 75 -73 91 -204 380
-204 452 0 15 8 35 18 44 29 26 302 96 517 131 149 25 275 33 528 35 189 1
233 -2 258 -15z m-1733 -217 c14 -15 17 -36 16 -131 -3 -184 -49 -392 -98
-441 -55 -55 -264 -85 -643 -92 -158 -3 -283 -2 -283 3 0 5 7 56 16 114 15
100 15 114 -5 294 -12 104 -20 190 -19 191 36 30 189 58 383 69 l100 6 -56
-18 c-30 -10 -73 -31 -94 -45 -43 -30 -95 -100 -95 -129 0 -11 -5 -29 -11 -40
-9 -17 -8 -23 6 -31 15 -8 13 -13 -17 -45 -32 -35 -22 -31 35 15 19 15 42 23
68 23 l39 0 0 43 c0 56 14 73 78 97 l52 20 0 -28 c0 -37 40 -104 71 -119 34
-16 164 -5 190 16 14 11 22 33 26 73 l6 56 40 -14 c64 -23 53 -10 -20 23 -88
40 -122 45 -213 33 -105 -13 -163 -33 -254 -85 -44 -25 -81 -43 -83 -42 -2 2
7 24 20 48 19 37 35 50 95 80 133 67 273 76 420 27 39 -14 72 -23 72 -21 0 5
-64 35 -114 54 l-51 19 153 -3 c129 -3 155 -6 170 -20z m-400 -89 c18 -18 15
-56 -5 -66 -10 -6 -28 -6 -40 -1 -39 14 -25 79 17 79 9 0 21 -5 28 -12z"/>
<path d="M5790 5910 c-11 -7 -7 -10 19 -10 47 0 124 -76 141 -140 19 -70 7
-292 -20 -360 -12 -29 -20 -65 -18 -79 4 -32 29 45 60 184 24 108 21 309 -5
349 -15 22 -112 66 -145 66 -10 0 -24 -5 -32 -10z"/>
<path d="M5533 5454 c-9 -15 -16 -41 -16 -59 1 -36 45 -121 76 -146 20 -16 47
-80 47 -111 0 -20 -29 -38 -63 -38 -28 0 -43 -26 -52 -90 -4 -25 -18 -65 -31
-89 -13 -24 -22 -46 -20 -48 13 -13 47 24 77 81 29 55 39 66 80 84 50 21 88
64 141 164 l28 51 -29 32 c-15 18 -31 48 -35 66 -10 52 -35 75 -110 103 -37
14 -70 26 -72 26 -2 0 -11 -12 -21 -26z"/>
<path d="M3538 4728 c-5 -98 -18 -135 -57 -165 -9 -7 -11 -12 -6 -13 76 -1
117 118 81 235 -12 39 -12 38 -18 -57z"/>
<path d="M3181 4634 c-37 -15 -125 -83 -118 -90 2 -2 29 7 59 21 40 18 77 26
132 29 83 3 108 15 86 41 -16 20 -113 20 -159 -1z"/>
<path d="M2455 4570 c10 -11 20 -20 23 -20 3 0 -3 9 -13 20 -10 11 -20 20 -23
20 -3 0 3 -9 13 -20z"/>
<path d="M2565 4579 c-13 -20 21 -40 87 -49 36 -5 78 -14 92 -20 15 -5 33 -10
39 -10 11 1 -151 71 -195 85 -9 3 -19 1 -23 -6z"/>
<path d="M3887 4489 c106 -110 125 -144 168 -299 13 -47 24 -73 24 -58 2 55
-22 136 -66 226 -45 93 -82 135 -155 176 -27 16 -22 8 29 -45z"/>
<path d="M2530 4516 c0 -14 64 -46 101 -51 48 -6 43 -3 -48 34 -29 11 -53 19
-53 17z"/>
<path d="M2313 4418 c-58 -60 -113 -181 -113 -250 0 -56 48 -178 70 -178 7 0
9 6 6 13 -56 134 -42 243 53 405 17 28 30 52 28 52 -1 0 -22 -19 -44 -42z"/>
<path d="M3870 4092 c-61 -44 -149 -73 -252 -82 -57 -5 -152 -18 -213 -29
-182 -32 -347 -44 -511 -37 -176 7 -235 16 -363 57 -51 16 -98 28 -103 27 -6
-2 30 -22 78 -45 82 -39 100 -43 223 -55 117 -12 161 -11 340 4 113 9 262 24
331 33 69 9 174 20 234 25 88 8 120 15 174 40 67 31 102 56 102 72 0 12 -12 9
-40 -10z"/>
<path d="M5301 3872 c-19 -32 -53 -91 -76 -132 -55 -99 -157 -202 -271 -273
-49 -31 -105 -75 -123 -98 -19 -23 -50 -48 -70 -56 -20 -8 -45 -23 -56 -32
-11 -10 -82 -52 -158 -95 -131 -74 -144 -79 -245 -95 -59 -10 -142 -29 -185
-42 -67 -20 -82 -21 -111 -11 -31 12 -40 10 -106 -22 -40 -20 -94 -55 -119
-79 -26 -24 -65 -50 -87 -57 -21 -7 -73 -30 -115 -51 -43 -21 -99 -44 -125
-50 -27 -7 -78 -25 -113 -41 -81 -36 -166 -58 -222 -58 -24 0 -88 16 -142 34
-90 31 -104 40 -170 103 -40 39 -84 73 -99 77 -18 4 -38 22 -53 47 -25 39
-132 118 -164 120 -20 2 -45 -2 -50 -6 -2 -2 18 -30 43 -62 65 -81 113 -157
121 -192 4 -19 18 -37 40 -50 28 -16 36 -28 41 -61 8 -47 34 -70 79 -70 17 0
54 -16 85 -35 33 -22 67 -35 87 -35 35 0 34 2 37 -75 1 -20 8 -33 26 -41 67
-33 291 -106 354 -115 39 -6 81 -13 92 -15 12 -2 44 -19 71 -38 l50 -34 134 2
c102 1 141 6 165 18 17 9 82 33 145 54 63 20 139 49 170 64 30 16 73 31 95 35
64 11 94 26 110 56 17 34 35 44 94 54 71 11 131 42 185 95 28 27 100 84 160
127 121 86 175 151 175 208 0 36 12 49 90 93 85 47 96 64 114 171 9 51 19 98
22 103 3 5 10 54 15 109 6 70 16 116 32 153 13 29 27 74 32 102 4 27 21 74 38
105 30 54 31 58 17 98 -7 23 -16 44 -19 46 -3 1 -21 -22 -40 -53z"/>
<path d="M3430 3763 c-62 -27 -207 -53 -332 -60 -97 -5 -116 -8 -88 -15 46
-11 227 0 295 17 30 8 82 28 117 44 64 30 71 42 8 14z"/>
<path d="M3693 5865 c-66 -18 -142 -65 -172 -106 -22 -30 -21 -29 30 10 29 23
65 49 80 57 38 19 160 44 219 44 59 0 310 -79 378 -119 47 -27 112 -54 112
-46 0 3 -30 25 -67 49 -41 27 -112 60 -178 82 -99 34 -122 38 -230 41 -82 2
-136 -2 -172 -12z"/>
<path d="M3840 5780 c-8 -5 -7 -9 4 -13 38 -15 5 -75 -34 -62 -25 8 -27 50 -2
64 34 20 -34 12 -116 -14 -77 -24 -123 -51 -192 -115 l-35 -32 35 22 c41 25
232 120 243 120 4 0 7 -18 7 -40 0 -23 7 -54 15 -69 18 -36 67 -45 166 -31 80
12 98 26 99 78 0 35 4 36 88 10 31 -9 32 -11 15 -25 -16 -13 -15 -14 16 -9 18
3 48 6 65 6 25 1 15 8 -54 36 -148 60 -289 93 -320 74z"/>
</g>
</svg>
